<?xml version="1.0" encoding="UTF-8" standalone="no"?>
<!-- Created with Inkscape (http://www.inkscape.org/) -->

<svg
   xmlns:dc="http://purl.org/dc/elements/1.1/"
   xmlns:cc="http://creativecommons.org/ns#"
   xmlns:rdf="http://www.w3.org/1999/02/22-rdf-syntax-ns#"
   xmlns:svg="http://www.w3.org/2000/svg"
   xmlns="http://www.w3.org/2000/svg"
   xmlns:sodipodi="http://sodipodi.sourceforge.net/DTD/sodipodi-0.dtd"
   xmlns:inkscape="http://www.inkscape.org/namespaces/inkscape"
   width="12mm"
   height="45mm"
   viewBox="0 0 12 45"
   version="1.1"
   id="svg935"
   sodipodi:docname="GoPiGo3 Spacer Acrylic.svg"
   inkscape:version="0.91 r13725">
  <defs
     id="defs929" />
  <sodipodi:namedview
     id="base"
     pagecolor="#ffffff"
     bordercolor="#666666"
     borderopacity="1.0"
     inkscape:pageopacity="0.0"
     inkscape:pageshadow="2"
     inkscape:zoom="7.3579365"
     inkscape:cx="26.413841"
     inkscape:cy="83.330824"
     inkscape:document-units="mm"
     inkscape:current-layer="layer1"
     showgrid="true"
     inkscape:window-width="1050"
     inkscape:window-height="1627"
     inkscape:window-x="-8"
     inkscape:window-y="302"
     inkscape:window-maximized="1"
     inkscape:snap-object-midpoints="true"
     inkscape:object-nodes="true"
     inkscape:snap-nodes="true"
     inkscape:snap-global="true"
     inkscape:snap-to-guides="true"
     inkscape:snap-grids="true"
     inkscape:snap-smooth-nodes="false"
     inkscape:snap-midpoints="false"
     inkscape:snap-bbox="false"
     inkscape:bbox-paths="true"
     inkscape:bbox-nodes="false"
     inkscape:snap-bbox-edge-midpoints="false"
     inkscape:snap-bbox-midpoints="false">
    <inkscape:grid
       type="xygrid"
       id="grid937"
       units="mm"
       spacingx="1"
       spacingy="1"
       empspacing="1" />
  </sodipodi:namedview>
  <metadata
     id="metadata932">
    <rdf:RDF>
      <cc:Work
         rdf:about="">
        <dc:format>image/svg+xml</dc:format>
        <dc:type
           rdf:resource="http://purl.org/dc/dcmitype/StillImage" />
        <dc:title></dc:title>
      </cc:Work>
    </rdf:RDF>
  </metadata>
  <g
     inkscape:label="Layer 1"
     inkscape:groupmode="layer"
     id="layer1"
     transform="translate(0,-252.00001)">
    <g
       id="g4502">
      <g
         transform="translate(-138,2)"
         style="fill:#ffffff;fill-opacity:1;stroke:#0000ff;stroke-width:0.01;stroke-miterlimit:4;stroke-dasharray:none;stroke-opacity:1"
         id="g8418">
        <circle
           r="5.099896"
           cy="289"
           cx="144"
           id="circle8414"
           style="fill:#ffffff;fill-opacity:1;stroke:#0000ff;stroke-width:0.01020813;stroke-miterlimit:4;stroke-dasharray:none;stroke-opacity:1" />
      </g>
      <path
         sodipodi:nodetypes="csccscc"
         inkscape:connector-curvature="0"
         id="path4496"
         d="M 7.9091871,292.90919 C 7.4205838,293.39779 6.7455841,293.7 6,293.7 c -0.7455841,0 -1.4205838,-0.30221 -1.9091871,-0.79081 0,-3.81838 0,0 0,-3.81838 C 4.5794162,288.60221 5.2544159,288.3 6,288.3 c 0.7455841,0 1.4205838,0.30221 1.9091871,0.79081 0,3.81838 0,0 0,3.81838 z"
         style="fill:#ffffff;fill-opacity:1;stroke:#0000ff;stroke-width:0.01;stroke-miterlimit:4;stroke-dasharray:none;stroke-opacity:1" />
    </g>
    <g
       aria-label="L"
       style="font-style:normal;font-weight:normal;font-size:4.93888855px;line-height:1.25;font-family:sans-serif;letter-spacing:0px;word-spacing:0px;fill:#ffffff;fill-opacity:1;stroke:#ff0000;stroke-width:0.01;stroke-miterlimit:4;stroke-dasharray:none;stroke-opacity:1"
       id="text4753"
       transform="matrix(-1,0,0,-1,150.72507,375.39954)" />
    <g
       id="g4510"
       transform="translate(0,-11)">
      <g
         id="g4506"
         style="fill:#ffffff;fill-opacity:1;stroke:#0000ff;stroke-width:0.01;stroke-miterlimit:4;stroke-dasharray:none;stroke-opacity:1"
         transform="translate(-138,2)">
        <circle
           style="fill:#ffffff;fill-opacity:1;stroke:#0000ff;stroke-width:0.01020813;stroke-miterlimit:4;stroke-dasharray:none;stroke-opacity:1"
           id="circle4504"
           cx="144"
           cy="289"
           r="5.099896" />
      </g>
      <path
         style="fill:#ffffff;fill-opacity:1;stroke:#0000ff;stroke-width:0.01;stroke-miterlimit:4;stroke-dasharray:none;stroke-opacity:1"
         d="M 7.9091871,292.90919 C 7.4205838,293.39779 6.7455841,293.7 6,293.7 c -0.7455841,0 -1.4205838,-0.30221 -1.9091871,-0.79081 0,-3.81838 0,0 0,-3.81838 C 4.5794162,288.60221 5.2544159,288.3 6,288.3 c 0.7455841,0 1.4205838,0.30221 1.9091871,0.79081 0,3.81838 0,0 0,3.81838 z"
         id="path4508"
         inkscape:connector-curvature="0"
         sodipodi:nodetypes="csccscc" />
    </g>
    <g
       transform="translate(0,-22)"
       id="g4518">
      <g
         transform="translate(-138,2)"
         style="fill:#ffffff;fill-opacity:1;stroke:#0000ff;stroke-width:0.01;stroke-miterlimit:4;stroke-dasharray:none;stroke-opacity:1"
         id="g4514">
        <circle
           r="5.099896"
           cy="289"
           cx="144"
           id="circle4512"
           style="fill:#ffffff;fill-opacity:1;stroke:#0000ff;stroke-width:0.01020813;stroke-miterlimit:4;stroke-dasharray:none;stroke-opacity:1" />
      </g>
      <path
         sodipodi:nodetypes="csccscc"
         inkscape:connector-curvature="0"
         id="path4516"
         d="M 7.9091871,292.90919 C 7.4205838,293.39779 6.7455841,293.7 6,293.7 c -0.7455841,0 -1.4205838,-0.30221 -1.9091871,-0.79081 0,-3.81838 0,0 0,-3.81838 C 4.5794162,288.60221 5.2544159,288.3 6,288.3 c 0.7455841,0 1.4205838,0.30221 1.9091871,0.79081 0,3.81838 0,0 0,3.81838 z"
         style="fill:#ffffff;fill-opacity:1;stroke:#0000ff;stroke-width:0.01;stroke-miterlimit:4;stroke-dasharray:none;stroke-opacity:1" />
    </g>
    <g
       id="g4526"
       transform="translate(0,-33)">
      <g
         id="g4522"
         style="fill:#ffffff;fill-opacity:1;stroke:#0000ff;stroke-width:0.01;stroke-miterlimit:4;stroke-dasharray:none;stroke-opacity:1"
         transform="translate(-138,2)">
        <circle
           style="fill:#ffffff;fill-opacity:1;stroke:#0000ff;stroke-width:0.01020813;stroke-miterlimit:4;stroke-dasharray:none;stroke-opacity:1"
           id="circle4520"
           cx="144"
           cy="289"
           r="5.099896" />
      </g>
      <path
         style="fill:#ffffff;fill-opacity:1;stroke:#0000ff;stroke-width:0.01;stroke-miterlimit:4;stroke-dasharray:none;stroke-opacity:1"
         d="M 7.9091871,292.90919 C 7.4205838,293.39779 6.7455841,293.7 6,293.7 c -0.7455841,0 -1.4205838,-0.30221 -1.9091871,-0.79081 0,-3.81838 0,0 0,-3.81838 C 4.5794162,288.60221 5.2544159,288.3 6,288.3 c 0.7455841,0 1.4205838,0.30221 1.9091871,0.79081 0,3.81838 0,0 0,3.81838 z"
         id="path4524"
         inkscape:connector-curvature="0"
         sodipodi:nodetypes="csccscc" />
    </g>
  </g>
</svg>
