<?xml version="1.0" standalone="yes"?>

<svg version="1.1" viewBox="0.0 0.0 960.0 540.0" fill="none" stroke="none" stroke-linecap="square" stroke-miterlimit="10" xmlns="http://www.w3.org/2000/svg" xmlns:xlink="http://www.w3.org/1999/xlink"><clipPath id="p.0"><path d="m0 0l960.0 0l0 540.0l-960.0 0l0 -540.0z" clip-rule="nonzero"></path></clipPath><g clip-path="url(#p.0)"><path fill="#ffffff" d="m0 0l960.0 0l0 540.0l-960.0 0z" fill-rule="evenodd"></path><path fill="#000000" fill-opacity="0.0" d="m34.56518 318.40683l894.55115 0l0 215.49606l-894.55115 0z" fill-rule="evenodd"></path><path fill="#000000" d="m379.2744 502.09912q0.328125 0 0.5 0.1875q0.1875 0.1875 0.109375 0.53125l-0.109375 0.3125l-8.578125 15.359375q-0.109375 0.21875 -0.3125 0.34375q-0.203125 0.109375 -0.421875 0.109375q-0.5625 0 -0.625 -0.453125l-1.96875 -10.25l-6.34375 10.25q-0.3125 0.453125 -0.8125 0.453125q-0.21875 0 -0.375 -0.109375q-0.15625 -0.125 -0.15625 -0.34375l-2.03125 -15.359375q-0.046875 -0.140625 -0.015625 -0.296875q0.078125 -0.328125 0.359375 -0.53125q0.296875 -0.203125 0.59375 -0.203125q0.234375 0 0.40625 0.125q0.171875 0.109375 0.1875 0.328125l1.78125 13.734375l6.171875 -10.0625q0.328125 -0.484375 0.765625 -0.453125q0.265625 -0.03125 0.40625 0.109375q0.15625 0.125 0.203125 0.34375l1.859375 10.0625l7.578125 -13.734375q0.296875 -0.453125 0.828125 -0.453125zm12.371429 4.578125q0.3125 0 0.46875 0.21875q0.15625 0.21875 0.09375 0.53125l-2.296875 10.796875q-0.0625 0.3125 -0.3125 0.515625q-0.25 0.203125 -0.5625 0.203125q-0.3125 0 -0.46875 -0.203125q-0.15625 -0.203125 -0.09375 -0.515625l0.34375 -1.609375q-0.84375 1.078125 -2.203125 1.828125q-1.34375 0.734375 -2.765625 0.734375q-1.609375 0 -2.71875 -0.828125q-1.09375 -0.84375 -1.515625 -2.3125q-0.421875 -1.46875 -0.046875 -3.28125q0.390625 -1.828125 1.4375 -3.28125q1.0625 -1.453125 2.515625 -2.265625q1.46875 -0.8125 3.03125 -0.8125q1.4375 0 2.484375 0.703125q1.046875 0.6875 1.40625 1.8125l0.328125 -1.484375q0.0625 -0.3125 0.3125 -0.53125q0.25 -0.21875 0.5625 -0.21875zm-7.375 11.15625q1.25 0 2.390625 -0.65625q1.140625 -0.65625 1.953125 -1.8125q0.8125 -1.171875 1.109375 -2.609375q0.296875 -1.390625 -0.015625 -2.546875q-0.3125 -1.15625 -1.1875 -1.8125q-0.859375 -0.65625 -2.109375 -0.65625q-1.25 0 -2.375 0.65625q-1.125 0.640625 -1.9375 1.78125q-0.796875 1.140625 -1.109375 2.578125q-0.296875 1.4375 0 2.609375q0.296875 1.15625 1.15625 1.8125q0.859375 0.65625 2.125 0.65625zm10.791718 0.390625q-0.0625 0.3125 -0.3125 0.515625q-0.25 0.203125 -0.5625 0.203125q-0.3125 0 -0.46875 -0.203125q-0.15625 -0.203125 -0.09375 -0.515625l2.34375 -11.046875q0.0625 -0.3125 0.3125 -0.515625q0.25 -0.203125 0.5625 -0.203125q0.3125 0 0.46875 0.203125q0.15625 0.203125 0.09375 0.515625l-2.34375 11.046875zm2.375 -13.390625q-0.46875 0 -0.6875 -0.21875q-0.21875 -0.234375 -0.125 -0.671875l0.046875 -0.234375q0.09375 -0.4375 0.40625 -0.65625q0.328125 -0.234375 0.8125 -0.234375q0.953125 0 0.765625 0.890625l-0.046875 0.234375q-0.09375 0.4375 -0.390625 0.671875q-0.296875 0.21875 -0.78125 0.21875zm5.9328613 3.234375l-1.71875 8.046875q-0.1875 0.90625 0.078125 1.234375q0.265625 0.328125 0.8125 0.328125q0.140625 0 0.375 -0.0625q0.234375 -0.0625 0.359375 -0.0625q0.21875 0 0.328125 0.1875q0.125 0.171875 0.078125 0.40625q-0.078125 0.34375 -0.515625 0.578125q-0.4375 0.21875 -0.953125 0.21875q-0.65625 0 -1.140625 -0.109375q-0.46875 -0.125 -0.8125 -0.71875q-0.328125 -0.609375 -0.046875 -1.9375l1.71875 -8.109375l-1.75 0q-0.296875 0 -0.46875 -0.1875q-0.15625 -0.1875 -0.09375 -0.484375q0.0625 -0.28125 0.296875 -0.46875q0.25 -0.203125 0.546875 -0.203125l1.75 0l0.5625 -2.65625q0.078125 -0.3125 0.3125 -0.515625q0.25 -0.203125 0.5625 -0.203125q0.3125 0 0.46875 0.203125q0.171875 0.203125 0.09375 0.515625l-0.5625 2.65625l2.40625 0q0.25 0 0.40625 0.21875q0.171875 0.21875 0.125 0.484375q-0.0625 0.28125 -0.296875 0.46875q-0.234375 0.171875 -0.515625 0.171875l-2.40625 0zm4.964081 10.15625q-0.0625 0.3125 -0.3125 0.515625q-0.25 0.203125 -0.5625 0.203125q-0.3125 0 -0.46875 -0.203125q-0.15625 -0.203125 -0.09375 -0.515625l2.34375 -11.046875q0.0625 -0.3125 0.3125 -0.515625q0.25 -0.203125 0.5625 -0.203125q0.3125 0 0.46875 0.203125q0.15625 0.203125 0.09375 0.515625l-2.34375 11.046875zm2.375 -13.390625q-0.46875 0 -0.6875 -0.21875q-0.21875 -0.234375 -0.125 -0.671875l0.046875 -0.234375q0.09375 -0.4375 0.40625 -0.65625q0.328125 -0.234375 0.8125 -0.234375q0.953125 0 0.765625 0.890625l-0.046875 0.234375q-0.09375 0.4375 -0.390625 0.671875q-0.296875 0.21875 -0.78125 0.21875zm9.682861 1.5625q2.21875 0 2.984375 1.3125q0.765625 1.296875 0.3125 3.453125l-1.5 7.0625q-0.0625 0.3125 -0.328125 0.515625q-0.265625 0.203125 -0.546875 0.203125q-0.3125 0 -0.46875 -0.203125q-0.15625 -0.203125 -0.09375 -0.515625l1.484375 -6.984375q0.328125 -1.5625 -0.25 -2.53125q-0.578125 -0.96875 -2.203125 -0.96875q-1.03125 0 -2.0625 0.484375q-1.03125 0.46875 -1.765625 1.28125q-0.734375 0.796875 -0.9375 1.734375l-1.484375 6.984375q-0.0625 0.3125 -0.328125 0.515625q-0.25 0.203125 -0.5625 0.203125q-0.3125 0 -0.46875 -0.203125q-0.15625 -0.203125 -0.09375 -0.515625l2.28125 -10.75q0.0625 -0.3125 0.3125 -0.515625q0.25 -0.203125 0.5625 -0.203125q0.3125 0 0.46875 0.203125q0.171875 0.203125 0.109375 0.515625l-0.28125 1.3125q0.859375 -1.03125 2.21875 -1.703125q1.359375 -0.6875 2.640625 -0.6875zm18.387604 0.28125q0.3125 0 0.46875 0.203125q0.15625 0.203125 0.09375 0.546875l-2.21875 10.390625q-0.390625 1.875 -1.453125 3.203125q-1.0625 1.328125 -2.5625 2.015625q-1.5 0.703125 -3.265625 0.703125q-0.828125 0 -1.71875 -0.21875q-0.890625 -0.203125 -1.46875 -0.546875q-0.578125 -0.328125 -0.59375 -0.6875q-0.140625 -0.171875 -0.09375 -0.390625q0.046875 -0.234375 0.296875 -0.390625q0.109375 -0.0625 0.25 -0.0625q0.140625 0 0.53125 0.15625l0.453125 0.21875q1.359375 0.578125 2.65625 0.578125q2.140625 0 3.609375 -1.21875q1.46875 -1.203125 1.90625 -3.265625l0.3125 -1.484375q-0.875 1.296875 -2.328125 2.03125q-1.4375 0.71875 -2.859375 0.71875q-1.65625 0 -2.828125 -0.828125q-1.15625 -0.828125 -1.609375 -2.28125q-0.453125 -1.46875 -0.0625 -3.296875q0.375 -1.796875 1.453125 -3.25q1.078125 -1.46875 2.59375 -2.296875q1.515625 -0.828125 3.140625 -0.828125q1.515625 0 2.609375 0.75q1.09375 0.75 1.484375 1.8125l0.328125 -1.53125q0.0625 -0.3125 0.3125 -0.53125q0.25 -0.21875 0.5625 -0.21875zm-7.578125 11.15625q1.3125 0 2.484375 -0.625q1.1875 -0.640625 2.015625 -1.796875q0.84375 -1.171875 1.15625 -2.640625q0.3125 -1.453125 -0.03125 -2.609375q-0.34375 -1.15625 -1.265625 -1.78125q-0.90625 -0.640625 -2.21875 -0.640625q-1.296875 0 -2.484375 0.65625q-1.171875 0.65625 -2.015625 1.8125q-0.828125 1.15625 -1.125 2.5625q-0.3125 1.4375 0.03125 2.59375q0.34375 1.15625 1.25 1.8125q0.90625 0.65625 2.203125 0.65625zm27.94757 -11.390625q0.25 0 0.421875 0.171875q0.1875 0.15625 0.125 0.421875q-0.046875 0.21875 -0.1875 0.40625l-7.046875 11.046875q-0.125 0.1875 -0.34375 0.328125q-0.203125 0.125 -0.390625 0.125q-0.25 0.03125 -0.421875 -0.09375q-0.15625 -0.125 -0.21875 -0.359375l-2.375 -11.046875q0.015625 -0.046875 0 -0.140625q-0.015625 -0.09375 0 -0.1875q0.0625 -0.296875 0.296875 -0.5q0.234375 -0.203125 0.59375 -0.203125q0.21875 0 0.375 0.140625q0.15625 0.125 0.203125 0.34375l2.015625 9.71875l6.171875 -9.71875q0.140625 -0.21875 0.34375 -0.34375q0.203125 -0.140625 0.4375 -0.109375zm2.3209534 11.78125q-0.0625 0.3125 -0.3125 0.515625q-0.25 0.203125 -0.5625 0.203125q-0.3125 0 -0.46875 -0.203125q-0.15625 -0.203125 -0.09375 -0.515625l2.34375 -11.046875q0.0625 -0.3125 0.3125 -0.515625q0.25 -0.203125 0.5625 -0.203125q0.3125 0 0.46875 0.203125q0.15625 0.203125 0.09375 0.515625l-2.34375 11.046875zm2.375 -13.390625q-0.46875 0 -0.6875 -0.21875q-0.21875 -0.234375 -0.125 -0.671875l0.046875 -0.234375q0.09375 -0.4375 0.40625 -0.65625q0.328125 -0.234375 0.8125 -0.234375q0.953125 0 0.765625 0.890625l-0.046875 0.234375q-0.09375 0.4375 -0.390625 0.671875q-0.296875 0.21875 -0.78125 0.21875zm14.964111 -3.65625q0.3125 0 0.46875 0.203125q0.15625 0.203125 0.09375 0.515625l-3.46875 16.328125q-0.0625 0.3125 -0.3125 0.515625q-0.25 0.203125 -0.5625 0.203125q-0.3125 0 -0.46875 -0.203125q-0.15625 -0.203125 -0.09375 -0.515625l0.359375 -1.6875q-0.84375 1.109375 -2.203125 1.875q-1.34375 0.765625 -2.78125 0.765625q-1.578125 0 -2.703125 -0.828125q-1.109375 -0.828125 -1.546875 -2.28125q-0.421875 -1.46875 -0.03125 -3.296875q0.375 -1.796875 1.421875 -3.25q1.0625 -1.46875 2.53125 -2.296875q1.46875 -0.828125 3.03125 -0.828125q1.40625 0 2.453125 0.703125q1.0625 0.703125 1.4375 1.828125l1.5 -7.03125q0.0625 -0.3125 0.3125 -0.515625q0.25 -0.203125 0.5625 -0.203125zm-8.546875 16.65625q1.25 0 2.390625 -0.640625q1.140625 -0.65625 1.9375 -1.8125q0.8125 -1.171875 1.125 -2.609375q0.296875 -1.40625 -0.015625 -2.5625q-0.3125 -1.15625 -1.1875 -1.8125q-0.859375 -0.65625 -2.109375 -0.65625q-1.25 0 -2.375 0.65625q-1.125 0.65625 -1.9375 1.8125q-0.8125 1.15625 -1.109375 2.5625q-0.3125 1.4375 0 2.59375q0.328125 1.15625 1.171875 1.8125q0.859375 0.65625 2.109375 0.65625zm21.072968 -5.734375q-0.0625 0.296875 -0.328125 0.5q-0.25 0.203125 -0.53125 0.203125l-9.078125 0q-0.3125 1.4375 0.03125 2.578125q0.34375 1.140625 1.296875 1.796875q0.953125 0.65625 2.4375 0.65625q1.15625 0 2.171875 -0.46875q1.015625 -0.484375 1.71875 -1.234375q0.3125 -0.21875 0.5625 -0.21875q0.234375 0 0.375 0.203125q0.15625 0.1875 0.109375 0.421875q-0.0625 0.265625 -0.34375 0.515625q-0.96875 0.9375 -2.265625 1.53125q-1.28125 0.59375 -2.578125 0.59375q-1.84375 0 -3.109375 -0.78125q-1.25 -0.796875 -1.734375 -2.21875q-0.484375 -1.4375 -0.078125 -3.3125q0.40625 -1.96875 1.5 -3.4375q1.09375 -1.46875 2.5625 -2.25q1.46875 -0.78125 2.9375 -0.78125q1.4375 0 2.546875 0.671875q1.109375 0.671875 1.625 1.96875q0.515625 1.296875 0.171875 3.0625zm-4.640625 -4.3125q-1.40625 0 -2.796875 0.96875q-1.390625 0.953125 -2.109375 2.75l8.1875 0l0.046875 -0.1875q0.109375 -1.09375 -0.328125 -1.890625q-0.4375 -0.796875 -1.25 -1.21875q-0.796875 -0.421875 -1.75 -0.421875zm18.797058 5.015625q-0.390625 1.796875 -1.5 3.265625q-1.09375 1.453125 -2.65625 2.28125q-1.5625 0.828125 -3.265625 0.828125q-1.703125 0 -2.9375 -0.828125q-1.21875 -0.828125 -1.703125 -2.28125q-0.46875 -1.46875 -0.078125 -3.265625q0.375 -1.796875 1.46875 -3.265625q1.109375 -1.46875 2.6875 -2.296875q1.578125 -0.84375 3.28125 -0.84375q1.703125 0 2.90625 0.84375q1.21875 0.828125 1.6875 2.296875q0.484375 1.46875 0.109375 3.265625zm-1.4375 0q0.296875 -1.4375 -0.0625 -2.59375q-0.34375 -1.15625 -1.28125 -1.8125q-0.921875 -0.65625 -2.21875 -0.65625q-1.296875 0 -2.484375 0.65625q-1.1875 0.65625 -2.0625 1.8125q-0.859375 1.15625 -1.15625 2.59375q-0.3125 1.40625 0.0625 2.5625q0.375 1.15625 1.28125 1.8125q0.921875 0.65625 2.21875 0.65625q1.296875 0 2.5 -0.640625q1.203125 -0.65625 2.046875 -1.796875q0.84375 -1.15625 1.15625 -2.59375zm9.347595 4.203125q-0.109375 -0.3125 -0.0625 -0.53125q0.0625 -0.3125 0.390625 -0.484375q0.1875 -0.140625 0.421875 -0.140625q0.28125 0 0.484375 0.234375q1.0 1.875 3.359375 1.875q1.15625 0 2.125 -0.53125q0.96875 -0.546875 1.1875 -1.578125q0.21875 -1.015625 -0.46875 -1.515625q-0.6875 -0.5 -2.03125 -0.859375q-1.890625 -0.5 -2.84375 -1.296875q-0.953125 -0.8125 -0.625 -2.375q0.21875 -0.984375 0.9375 -1.765625q0.71875 -0.78125 1.75 -1.203125q1.046875 -0.4375 2.25 -0.4375q1.03125 0 1.984375 0.390625q0.953125 0.390625 1.515625 1.265625q0.1875 0.15625 0.125 0.46875q-0.0625 0.296875 -0.359375 0.515625q-0.1875 0.140625 -0.453125 0.140625q-0.25 0 -0.40625 -0.1875q-0.4375 -0.65625 -1.15625 -0.984375q-0.71875 -0.34375 -1.625 -0.34375q-1.140625 0 -2.0625 0.53125q-0.90625 0.53125 -1.125 1.578125q-0.140625 0.96875 0.578125 1.46875q0.71875 0.5 2.21875 0.90625q1.1875 0.3125 1.921875 0.703125q0.75 0.375 1.109375 1.078125q0.375 0.703125 0.125 1.84375q-0.328125 1.5625 -1.78125 2.484375q-1.4375 0.921875 -3.28125 0.921875q-2.9375 0 -4.203125 -2.171875zm16.25592 -8.9375l-1.71875 8.046875q-0.1875 0.90625 0.078125 1.234375q0.265625 0.328125 0.8125 0.328125q0.140625 0 0.375 -0.0625q0.234375 -0.0625 0.359375 -0.0625q0.21875 0 0.328125 0.1875q0.125 0.171875 0.078125 0.40625q-0.078125 0.34375 -0.515625 0.578125q-0.4375 0.21875 -0.953125 0.21875q-0.65625 0 -1.140625 -0.109375q-0.46875 -0.125 -0.8125 -0.71875q-0.328125 -0.609375 -0.046875 -1.9375l1.71875 -8.109375l-1.75 0q-0.296875 0 -0.46875 -0.1875q-0.15625 -0.1875 -0.09375 -0.484375q0.0625 -0.28125 0.296875 -0.46875q0.25 -0.203125 0.546875 -0.203125l1.75 0l0.5625 -2.65625q0.078125 -0.3125 0.3125 -0.515625q0.25 -0.203125 0.5625 -0.203125q0.3125 0 0.46875 0.203125q0.171875 0.203125 0.09375 0.515625l-0.5625 2.65625l2.40625 0q0.25 0 0.40625 0.21875q0.171875 0.21875 0.125 0.484375q-0.0625 0.28125 -0.296875 0.46875q-0.234375 0.171875 -0.515625 0.171875l-2.40625 0zm11.823486 -1.671875q0.484375 0 0.828125 0.1875q0.34375 0.1875 0.25 0.578125q-0.0625 0.328125 -0.296875 0.53125q-0.234375 0.203125 -0.5 0.203125q-0.125 0 -0.453125 -0.109375q-0.3125 -0.125 -0.625 -0.125q-0.890625 0 -1.90625 0.6875q-1.015625 0.6875 -1.8125 1.765625q-0.796875 1.078125 -1.03125 2.1875l-1.25 5.921875q-0.0625 0.3125 -0.328125 0.515625q-0.25 0.203125 -0.5625 0.203125q-0.3125 0 -0.46875 -0.203125q-0.15625 -0.203125 -0.09375 -0.515625l2.28125 -10.75q0.0625 -0.3125 0.3125 -0.515625q0.25 -0.203125 0.5625 -0.203125q0.3125 0 0.46875 0.203125q0.171875 0.203125 0.109375 0.515625l-0.453125 2.109375q0.84375 -1.375 2.140625 -2.265625q1.3125 -0.90625 2.828125 -0.921875zm12.661865 5.703125q-0.0625 0.296875 -0.328125 0.5q-0.25 0.203125 -0.53125 0.203125l-9.078125 0q-0.3125 1.4375 0.03125 2.578125q0.34375 1.140625 1.296875 1.796875q0.953125 0.65625 2.4375 0.65625q1.15625 0 2.171875 -0.46875q1.015625 -0.484375 1.71875 -1.234375q0.3125 -0.21875 0.5625 -0.21875q0.234375 0 0.375 0.203125q0.15625 0.1875 0.109375 0.421875q-0.0625 0.265625 -0.34375 0.515625q-0.96875 0.9375 -2.265625 1.53125q-1.28125 0.59375 -2.578125 0.59375q-1.84375 0 -3.109375 -0.78125q-1.25 -0.796875 -1.734375 -2.21875q-0.484375 -1.4375 -0.078125 -3.3125q0.40625 -1.96875 1.5 -3.4375q1.09375 -1.46875 2.5625 -2.25q1.46875 -0.78125 2.9375 -0.78125q1.4375 0 2.546875 0.671875q1.109375 0.671875 1.625 1.96875q0.515625 1.296875 0.171875 3.0625zm-4.640625 -4.3125q-1.40625 0 -2.796875 0.96875q-1.390625 0.953125 -2.109375 2.75l8.1875 0l0.046875 -0.1875q0.109375 -1.09375 -0.328125 -1.890625q-0.4375 -0.796875 -1.25 -1.21875q-0.796875 -0.421875 -1.75 -0.421875zm18.734558 -1.109375q0.3125 0 0.46875 0.21875q0.15625 0.21875 0.09375 0.53125l-2.296875 10.796875q-0.0625 0.3125 -0.3125 0.515625q-0.25 0.203125 -0.5625 0.203125q-0.3125 0 -0.46875 -0.203125q-0.15625 -0.203125 -0.09375 -0.515625l0.34375 -1.609375q-0.84375 1.078125 -2.203125 1.828125q-1.34375 0.734375 -2.765625 0.734375q-1.609375 0 -2.71875 -0.828125q-1.09375 -0.84375 -1.515625 -2.3125q-0.421875 -1.46875 -0.046875 -3.28125q0.390625 -1.828125 1.4375 -3.28125q1.0625 -1.453125 2.515625 -2.265625q1.46875 -0.8125 3.03125 -0.8125q1.4375 0 2.484375 0.703125q1.046875 0.6875 1.40625 1.8125l0.328125 -1.484375q0.0625 -0.3125 0.3125 -0.53125q0.25 -0.21875 0.5625 -0.21875zm-7.375 11.15625q1.25 0 2.390625 -0.65625q1.140625 -0.65625 1.953125 -1.8125q0.8125 -1.171875 1.109375 -2.609375q0.296875 -1.390625 -0.015625 -2.546875q-0.3125 -1.15625 -1.1875 -1.8125q-0.859375 -0.65625 -2.109375 -0.65625q-1.25 0 -2.375 0.65625q-1.125 0.640625 -1.9375 1.78125q-0.796875 1.140625 -1.109375 2.578125q-0.296875 1.4375 0 2.609375q0.296875 1.15625 1.15625 1.8125q0.859375 0.65625 2.125 0.65625zm25.791748 -11.25q2.15625 0 2.890625 1.328125q0.75 1.328125 0.28125 3.515625l-1.4375 6.796875q-0.0625 0.3125 -0.3125 0.515625q-0.25 0.203125 -0.5625 0.203125q-0.3125 0 -0.46875 -0.203125q-0.15625 -0.203125 -0.09375 -0.515625l1.421875 -6.71875q0.34375 -1.59375 -0.203125 -2.578125q-0.546875 -1.0 -2.125 -1.0q-1.015625 0 -2.015625 0.484375q-1.0 0.46875 -1.734375 1.296875q-0.734375 0.828125 -0.9375 1.796875l-1.421875 6.71875q-0.0625 0.3125 -0.3125 0.515625q-0.25 0.203125 -0.5625 0.203125q-0.3125 0 -0.46875 -0.203125q-0.15625 -0.203125 -0.09375 -0.515625l1.4375 -6.796875q0.328125 -1.5625 -0.1875 -2.53125q-0.5 -0.96875 -2.03125 -0.96875q-0.984375 0 -1.96875 0.484375q-0.96875 0.46875 -1.6875 1.28125q-0.703125 0.796875 -0.90625 1.734375l-1.4375 6.796875q-0.0625 0.3125 -0.328125 0.515625q-0.25 0.203125 -0.5625 0.203125q-0.3125 0 -0.46875 -0.203125q-0.15625 -0.203125 -0.09375 -0.515625l2.28125 -10.75q0.0625 -0.3125 0.3125 -0.515625q0.25 -0.203125 0.5625 -0.203125q0.3125 0 0.46875 0.203125q0.171875 0.203125 0.109375 0.515625l-0.296875 1.390625q0.84375 -0.984375 2.078125 -1.625q1.25 -0.65625 2.484375 -0.65625q1.390625 0 2.25 0.671875q0.875 0.671875 1.015625 1.96875q0.75 -1.0625 2.25 -1.84375q1.515625 -0.796875 2.875 -0.796875zm12.096191 12.359375q-0.40625 0 -0.578125 -0.25q-0.15625 -0.25 -0.0625 -0.6875l0.109375 -0.5q0.09375 -0.4375 0.359375 -0.671875q0.265625 -0.25 0.671875 -0.25l0.15625 0q0.40625 0 0.578125 0.25q0.171875 0.234375 0.078125 0.671875l-0.109375 0.5q-0.09375 0.4375 -0.375 0.6875q-0.265625 0.25 -0.671875 0.25l-0.15625 0zm4.343994 0q-0.40625 0 -0.578125 -0.25q-0.15625 -0.25 -0.0625 -0.6875l0.109375 -0.5q0.09375 -0.4375 0.359375 -0.671875q0.265625 -0.25 0.671875 -0.25l0.15625 0q0.40625 0 0.578125 0.25q0.171875 0.234375 0.078125 0.671875l-0.109375 0.5q-0.09375 0.4375 -0.375 0.6875q-0.265625 0.25 -0.671875 0.25l-0.15625 0zm4.343994 0q-0.40625 0 -0.578125 -0.25q-0.15625 -0.25 -0.0625 -0.6875l0.109375 -0.5q0.09375 -0.4375 0.359375 -0.671875q0.265625 -0.25 0.671875 -0.25l0.15625 0q0.40625 0 0.578125 0.25q0.171875 0.234375 0.078125 0.671875l-0.109375 0.5q-0.09375 0.4375 -0.375 0.6875q-0.265625 0.25 -0.671875 0.25l-0.15625 0z" fill-rule="nonzero"></path></g></svg>

